<?xml version="1.0" encoding="UTF-8"?>
<svg width="40px" height="40px" viewBox="0 0 40 40" version="1.1" xmlns="http://www.w3.org/2000/svg" xmlns:xlink="http://www.w3.org/1999/xlink">
    <!-- Generator: Sketch 47.1 (45422) - http://www.bohemiancoding.com/sketch -->
    <title>日期</title>
    <desc>Created with Sketch.</desc>
    <defs></defs>
    <g id="Symbols" stroke="none" stroke-width="1" fill="none" fill-rule="evenodd">
        <g id="日期">
            <g id="Shape">
                <path d="M31.6666667,6.66666667 L30,6.66666667 L30,3.33333333 L26.6666667,3.33333333 L26.6666667,6.66666667 L13.3333333,6.66666667 L13.3333333,3.33333333 L10,3.33333333 L10,6.66666667 L8.33333333,6.66666667 C6.48333333,6.66666667 5.01666667,8.16666667 5.01666667,10 L5,33.3333333 C5,35.1666667 6.48333333,36.6666667 8.33333333,36.6666667 L31.6666667,36.6666667 C33.5,36.6666667 35,35.1666667 35,33.3333333 L35,10 C35,8.16666667 33.5,6.66666667 31.6666667,6.66666667 L31.6666667,6.66666667 Z M31.6666667,33.3333333 L8.33333333,33.3333333 L8.33333333,15 L31.6666667,15 L31.6666667,33.3333333 L31.6666667,33.3333333 Z" fill="#C1CDE4"></path>
                <polygon points="0 0 40 0 40 40 0 40"></polygon>
            </g>
        </g>
    </g>
</svg>