<?xml version="1.0" encoding="UTF-8"?>
<svg width="280px" height="280px" viewBox="0 0 280 280" version="1.1" xmlns="http://www.w3.org/2000/svg" xmlns:xlink="http://www.w3.org/1999/xlink">
    <!-- Generator: Sketch 45.2 (43514) - http://www.bohemiancoding.com/sketch -->
    <title>已认证</title>
    <desc>Created with Sketch.</desc>
    <defs></defs>
    <g id="Page-1" stroke="none" stroke-width="1" fill="none" fill-rule="evenodd">
        <g id="已认证" fill-rule="nonzero" fill="#EDAE67">
            <path d="M273.042471,123.331487 C282.22464,132.51967 282.22464,147.41551 273.042471,156.603693 L243.50065,186.139774 L243.50065,219.162394 C243.50065,232.603915 232.602821,243.502016 219.161301,243.502016 L186.13868,243.502016 L156.602599,273.038097 C147.414417,282.22628 132.51885,282.22628 123.330667,273.038097 L93.7948596,243.502016 L60.9548493,243.502016 C47.513602,243.502016 36.6155003,232.603915 36.6155003,219.162394 L36.6155003,186.322384 L6.89106877,156.603693 C-2.29711404,147.41551 -2.29711404,132.51967 6.89106877,123.331487 L36.6157737,93.6067822 L36.6157737,60.955396 C36.6157737,47.5138754 47.513602,36.6157737 60.9551226,36.6157737 L93.6062355,36.6157737 L123.33094,6.89106877 C132.519123,-2.29711404 147.41469,-2.29711404 156.602873,6.89106877 L186.32129,36.6157737 L219.161301,36.6157737 C232.602548,36.6157737 243.50065,47.5138754 243.50065,60.955396 L243.50065,93.7893923 L273.042471,123.331487 Z M222.556364,82.8786487 C221.284614,81.6068982 218.741112,81.6068982 214.92586,81.6068982 L170.414588,81.6068982 L169.142837,86.6939008 C171.686338,86.6939008 174.229839,87.9656514 175.50159,89.2374019 C176.773341,90.5091525 178.045092,91.7809034 178.045091,93.052654 L178.045091,95.5961554 C178.045091,96.867906 178.045091,96.867906 176.773341,98.1396566 L133.533818,175.716446 L125.903315,94.3244045 C125.903315,90.5091525 124.631564,86.6939005 122.088063,85.4221502 C120.816312,82.8786487 117.00106,81.6068982 113.185808,81.6068982 L73.761538,81.6068982 L72.4897871,86.6939008 C76.3050392,86.6939008 78.8485403,89.2374022 81.3920418,90.5091528 C82.6637924,93.0526542 83.9355432,95.5961554 85.2072938,100.683158 L99.1965511,217.684218 L142.436073,217.684218 L225.099865,90.5091528 C225.099865,90.5091528 225.099865,89.2374022 226.371616,89.2374019 L226.371616,86.6939008 C225.099866,85.4221502 225.099866,84.1503993 222.556364,82.8786487 L222.556364,82.8786487 Z" id="Shape"></path>
        </g>
    </g>
</svg>